<svg version="1.1" id="Layer_1" xmlns="http://www.w3.org/2000/svg" xmlns:xlink="http://www.w3.org/1999/xlink" x="0px" y="0px"
	 width="100%" viewBox="0 0 200 200" enable-background="new 0 0 200 200" xml:space="preserve">
<path fill="#FCFEFE" opacity="1.000000" stroke="none" 
	d="
M201.000000,84.000000 
	C201.000000,123.309052 201.000000,162.118103 201.000000,200.963577 
	C134.399307,200.963577 67.798607,200.963577 1.098946,200.963577 
	C1.098946,134.441116 1.098946,67.882027 1.098946,1.161472 
	C67.666351,1.161472 134.333145,1.161472 201.000000,1.161472 
	C201.000000,28.534462 201.000000,56.017231 201.000000,84.000000 
M135.933487,140.935974 
	C135.933487,140.935974 135.844223,140.882187 136.369263,140.788788 
	C136.567932,140.508224 136.766602,140.227661 136.999390,139.998947 
	C136.999390,139.998947 136.947021,139.965637 137.449966,139.768753 
	C137.602829,139.455872 137.755692,139.143005 137.960617,138.389450 
	C137.960617,138.389450 138.146652,137.986572 138.462021,137.804840 
	C138.332397,137.541763 138.202789,137.278687 137.869888,136.673843 
	C137.869888,136.673843 137.836273,136.277634 137.943649,135.522446 
	C137.269165,134.694992 136.594681,133.867554 135.482727,132.739792 
	C135.273682,132.258972 135.064651,131.778168 134.815536,130.742981 
	C134.559875,130.489426 134.304214,130.235886 133.609619,129.635345 
	C133.378418,129.135666 133.147202,128.635971 132.980972,127.375046 
	C131.934845,125.949333 130.888718,124.523621 129.225540,122.989502 
	C128.811829,122.933044 128.398132,122.876587 127.745148,122.528557 
	C127.536392,122.743393 127.327629,122.958229 127.038567,123.072281 
	C127.038567,123.072281 127.157288,123.122391 126.646935,123.184311 
	C126.430260,123.436798 126.213585,123.689285 125.762375,124.182602 
	C125.762375,124.182602 125.428970,124.225494 124.486137,124.087578 
	C123.223274,124.116028 121.960403,124.144478 120.313683,124.132568 
	C120.313683,124.132568 120.000267,123.907288 119.680984,123.443565 
	C119.325928,123.357185 118.970863,123.270813 118.272537,123.154419 
	C118.272537,123.154419 118.008850,122.932587 117.672340,122.460030 
	C117.305511,122.375343 116.938683,122.290657 116.250053,122.200874 
	C116.250053,122.200874 116.005119,121.992104 115.646660,121.494408 
	C115.256088,121.421112 114.865509,121.347816 113.742638,121.159561 
	C108.542000,117.811859 105.137695,122.337227 100.374245,123.959282 
	C98.534065,124.005569 96.693886,124.051857 93.994492,124.005516 
	C88.393417,123.822845 82.963608,124.047279 79.377472,130.148422 
	C78.892136,130.737717 78.406799,131.327011 77.191734,132.072647 
	C73.846191,131.521469 70.500656,130.970291 66.270241,130.273315 
	C65.525398,131.721756 64.197891,134.303223 62.327095,137.291977 
	C58.123508,144.358231 58.110733,144.376694 64.659683,148.908325 
	C66.295959,150.040573 67.946457,151.266037 69.775314,151.964584 
	C70.916603,152.400513 72.404221,151.929703 74.391426,151.741791 
	C75.324959,150.565033 76.258492,149.388275 77.717178,148.045731 
	C78.148331,147.729614 78.579483,147.413498 79.661674,146.953079 
	C80.100403,147.002121 80.539131,147.051163 81.283600,147.509567 
	C81.603798,147.537781 81.924004,147.565994 82.364281,147.543701 
	C82.364281,147.543701 82.493759,147.529373 82.064919,148.108765 
	C81.382835,148.766907 80.700760,149.425049 79.740471,150.248138 
	C79.740471,150.248138 79.417305,150.235123 78.822693,150.243912 
	C78.565056,150.524948 78.307411,150.805984 78.013573,151.010086 
	C78.013573,151.010086 78.086784,151.053314 77.565033,151.267136 
	C77.425392,151.601913 77.285759,151.936691 76.744400,152.848389 
	C76.799309,153.998062 76.402161,155.754196 76.988342,156.191132 
	C79.369370,157.965927 81.996758,159.441772 84.639465,160.824982 
	C87.237587,162.184845 90.006805,163.216003 92.618256,164.552933 
	C94.143181,165.333633 95.506104,166.430771 96.941902,167.385544 
	C98.254967,165.311325 99.568024,163.237122 101.005501,160.584534 
	C101.979385,160.403824 102.953270,160.223114 104.001953,160.019684 
	C104.001953,160.019684 103.950027,160.078125 103.962486,160.827728 
	C105.408958,162.174316 106.702080,163.797516 108.379517,164.727463 
	C109.024780,165.085190 110.733528,164.083527 111.624863,163.315140 
	C113.187660,161.967896 114.493721,160.322845 116.211418,158.253708 
	C116.472870,156.782791 116.734322,155.311874 117.803490,153.943405 
	C121.542953,154.489349 123.020973,153.049118 121.587311,149.605865 
	C123.253387,148.964294 124.565331,148.459076 126.435188,147.646912 
	C126.257675,146.776962 126.080170,145.906998 125.978203,145.016006 
	C125.978203,145.016006 125.950127,145.089233 125.775436,144.592392 
	C125.484734,144.411987 125.194038,144.231583 124.979065,144.026062 
	C124.979065,144.026062 124.957932,144.102982 124.708626,143.573364 
	C124.192879,143.322800 123.677139,143.072220 122.753845,142.419708 
	C122.215233,142.258087 121.676613,142.096466 121.044868,141.981064 
	C121.044868,141.981064 121.033745,141.877701 120.719452,141.440430 
	C120.385803,141.328339 120.052162,141.216248 119.326683,141.048492 
	C119.326683,141.048492 118.998497,140.827301 118.702278,140.414597 
	C118.388275,140.306412 118.074265,140.198227 117.334114,139.998016 
	C117.334114,139.998016 116.986176,139.735321 116.720428,139.363342 
	C116.483139,139.145401 116.203392,139.038193 115.388725,138.952927 
	C115.252342,138.856888 115.115967,138.760849 114.736366,138.328796 
	C114.524353,138.130997 114.273537,138.024765 113.999641,137.999359 
	C113.999641,137.999359 113.993217,138.015823 113.682373,137.507217 
	C113.129349,137.335098 112.576324,137.162994 112.002823,137.004532 
	C112.002823,137.004532 112.002243,136.980423 111.690094,136.496811 
	C111.333916,136.377777 110.977737,136.258743 110.063316,136.136856 
	C109.705093,136.039398 109.346870,135.941925 108.708824,135.447861 
	C108.468834,135.205017 108.178238,135.076996 107.415245,134.996964 
	C107.415245,134.996964 107.021019,134.832764 106.596191,134.352600 
	C106.032967,133.515564 105.469734,132.678543 105.078392,131.342712 
	C105.374962,131.201477 105.671539,131.060226 106.460732,131.509552 
	C108.261421,131.696381 110.062119,131.883209 111.946648,132.038666 
	C111.946648,132.038666 111.960197,132.127151 112.218575,132.541534 
	C112.451805,132.794586 112.740173,132.931747 113.016457,132.990387 
	C113.016457,132.990387 113.036285,132.916092 113.328949,133.447006 
	C113.701256,133.574829 114.073555,133.702652 114.782806,133.857315 
	C114.782806,133.857315 115.013466,134.104416 115.301918,134.548889 
	C115.628334,134.661697 115.954750,134.774490 116.898354,134.992691 
	C117.937187,135.656799 118.976021,136.320908 120.319298,137.476318 
	C120.674500,137.598907 121.029709,137.721512 121.751724,137.891037 
	C121.751724,137.891037 122.014534,138.151184 122.284462,138.574692 
	C122.590881,138.690826 122.897301,138.806946 123.826828,139.020172 
	C124.895241,139.656372 125.963654,140.292557 127.397697,141.499496 
	C128.043686,141.597977 128.689667,141.696472 130.011017,141.744934 
	C130.680908,141.833328 131.350784,141.921738 132.194077,142.347107 
	C132.452652,142.206619 132.711227,142.066132 133.414597,141.697708 
	C133.742065,141.675156 134.069550,141.652618 135.040176,141.702744 
	C135.329529,141.413437 135.618881,141.124146 135.933487,140.935974 
M118.500092,19.713612 
	C82.677414,19.698374 46.854408,19.751469 11.032496,19.578150 
	C6.737397,19.557369 5.157905,20.632576 5.259548,25.123678 
	C5.538268,37.438820 5.374221,49.763763 5.424161,62.084667 
	C5.428806,63.230419 5.708775,64.375053 5.860906,65.520210 
	C11.487140,56.847694 16.229853,48.097656 20.697615,39.209408 
	C22.009567,36.599388 23.587713,35.732899 26.465202,35.736877 
	C75.283318,35.804417 124.101669,35.801395 172.919571,35.667412 
	C176.280548,35.658188 177.935837,36.879456 179.477158,39.686153 
	C183.723694,47.419102 188.293625,54.974812 192.763275,62.584393 
	C193.254929,63.421444 193.925751,64.153267 195.010345,65.593849 
	C195.010345,51.476421 194.809021,38.314507 195.121094,25.164778 
	C195.228271,20.648716 193.784637,19.560843 189.478745,19.596996 
	C166.153854,19.792828 142.826553,19.704050 118.500092,19.713612 
M189.402130,181.060501 
	C191.178497,181.060501 192.954880,181.060501 194.879517,181.060501 
	C194.879517,175.749771 194.879517,171.013123 194.879517,165.799789 
	C192.327332,165.799789 189.976654,165.462051 187.761490,165.866470 
	C182.284683,166.866364 179.621201,164.308685 177.004868,159.686172 
	C156.275421,123.061485 135.250671,86.603935 114.298210,50.105610 
	C113.868935,49.357826 113.218079,48.737240 112.172752,47.439030 
	C112.172752,56.844540 111.804253,65.347466 112.326591,73.795311 
	C112.591911,78.086342 113.663040,82.724365 115.738747,86.441040 
	C127.576454,107.637131 139.625168,128.722565 152.026566,149.593414 
	C157.689774,159.124237 163.001465,168.508560 161.876373,180.114182 
	C161.862488,180.257446 162.004990,180.415894 162.301025,181.060547 
	C170.852859,181.060547 179.638824,181.060547 189.402130,181.060501 
M65.858719,118.419022 
	C72.536354,106.903770 79.232712,95.399284 85.867470,83.859375 
	C86.678978,82.447929 87.685944,80.854828 87.709747,79.331955 
	C87.871765,68.966072 87.794533,58.596443 87.794533,47.027679 
	C86.554420,48.931545 85.988510,49.713909 85.510475,50.546711 
	C65.712898,85.037277 45.645107,119.377876 26.333670,154.138657 
	C21.674452,162.525314 17.007355,168.159348 6.716238,165.855484 
	C6.310863,165.764755 5.817181,166.068466 5.235126,166.222702 
	C5.235126,171.066803 5.235126,175.812714 5.235126,180.707520 
	C16.328796,180.707520 27.186110,180.707520 38.698101,180.707520 
	C38.698101,177.379898 38.373371,174.361710 38.783409,171.446884 
	C39.255642,168.089935 39.736286,164.472534 41.324989,161.578506 
	C49.170227,147.287323 57.383354,133.198090 65.858719,118.419022 
z"/>
<path fill="#0EB5B7" opacity="1.000000" stroke="none" 
	d="
M119.000092,19.713472 
	C142.826553,19.704050 166.153854,19.792828 189.478745,19.596996 
	C193.784637,19.560843 195.228271,20.648716 195.121094,25.164778 
	C194.809021,38.314507 195.010345,51.476421 195.010345,65.593849 
	C193.925751,64.153267 193.254929,63.421444 192.763275,62.584393 
	C188.293625,54.974812 183.723694,47.419102 179.477158,39.686153 
	C177.935837,36.879456 176.280548,35.658188 172.919571,35.667412 
	C124.101669,35.801395 75.283318,35.804417 26.465202,35.736877 
	C23.587713,35.732899 22.009567,36.599388 20.697615,39.209408 
	C16.229853,48.097656 11.487140,56.847694 5.860906,65.520210 
	C5.708775,64.375053 5.428806,63.230419 5.424161,62.084667 
	C5.374221,49.763763 5.538268,37.438820 5.259548,25.123678 
	C5.157905,20.632576 6.737397,19.557369 11.032496,19.578150 
	C46.854408,19.751469 82.677414,19.698374 119.000092,19.713472 
z"/>
<path fill="#070707" opacity="1.000000" stroke="none" 
	d="
M188.913467,181.060516 
	C179.638824,181.060547 170.852859,181.060547 162.301025,181.060547 
	C162.004990,180.415894 161.862488,180.257446 161.876373,180.114182 
	C163.001465,168.508560 157.689774,159.124237 152.026566,149.593414 
	C139.625168,128.722565 127.576454,107.637131 115.738747,86.441040 
	C113.663040,82.724365 112.591911,78.086342 112.326591,73.795311 
	C111.804253,65.347466 112.172752,56.844540 112.172752,47.439030 
	C113.218079,48.737240 113.868935,49.357826 114.298210,50.105610 
	C135.250671,86.603935 156.275421,123.061485 177.004868,159.686172 
	C179.621201,164.308685 182.284683,166.866364 187.761490,165.866470 
	C189.976654,165.462051 192.327332,165.799789 194.879517,165.799789 
	C194.879517,171.013123 194.879517,175.749771 194.879517,181.060501 
	C192.954880,181.060501 191.178497,181.060501 188.913467,181.060516 
z"/>
<path fill="#070707" opacity="1.000000" stroke="none" 
	d="
M65.662720,118.728325 
	C57.383354,133.198090 49.170227,147.287323 41.324989,161.578506 
	C39.736286,164.472534 39.255642,168.089935 38.783409,171.446884 
	C38.373371,174.361710 38.698101,177.379898 38.698101,180.707520 
	C27.186110,180.707520 16.328796,180.707520 5.235126,180.707520 
	C5.235126,175.812714 5.235126,171.066803 5.235126,166.222702 
	C5.817181,166.068466 6.310863,165.764755 6.716238,165.855484 
	C17.007355,168.159348 21.674452,162.525314 26.333670,154.138657 
	C45.645107,119.377876 65.712898,85.037277 85.510475,50.546711 
	C85.988510,49.713909 86.554420,48.931545 87.794533,47.027679 
	C87.794533,58.596443 87.871765,68.966072 87.709747,79.331955 
	C87.685944,80.854828 86.678978,82.447929 85.867470,83.859375 
	C79.232712,95.399284 72.536354,106.903770 65.662720,118.728325 
z"/>
<path fill="#18B3B3" opacity="1.000000" stroke="none" 
	d="
M125.428970,124.225494 
	C125.428970,124.225494 125.762375,124.182602 126.139633,124.040543 
	C126.730354,123.639786 126.943825,123.381088 127.157288,123.122391 
	C127.157288,123.122391 127.038567,123.072281 127.321716,123.100082 
	C127.604858,123.127876 127.984421,122.820129 127.984421,122.820129 
	C128.398132,122.876587 128.811829,122.933044 129.588104,123.375656 
	C130.939117,125.219971 131.927551,126.678131 132.915985,128.136292 
	C133.147202,128.635971 133.378418,129.135666 133.845276,130.086975 
	C134.339142,130.791519 134.597366,131.044434 134.855606,131.297348 
	C135.064651,131.778168 135.273682,132.258972 135.737366,133.212250 
	C136.606766,134.549026 137.221527,135.413330 137.836273,136.277634 
	C137.836273,136.277634 137.869888,136.673843 137.930267,137.091858 
	C138.042664,137.668762 138.094666,137.827667 138.146652,137.986572 
	C138.146652,137.986572 137.960617,138.389450 137.690216,138.714447 
	C137.262222,139.348175 137.104630,139.656906 136.947021,139.965637 
	C136.947021,139.965637 136.999390,139.998947 136.728638,140.037018 
	C136.253326,140.344116 136.048782,140.613144 135.844223,140.882187 
	C135.844223,140.882187 135.933487,140.935974 135.627014,140.925720 
	C135.012695,141.153671 134.704865,141.391861 134.397018,141.630066 
	C134.069550,141.652618 133.742065,141.675156 132.949509,141.770401 
	C132.484421,141.843094 132.020676,142.010147 132.020676,142.010147 
	C131.350784,141.921738 130.680908,141.833328 129.447815,141.540695 
	C128.267105,141.200562 127.649582,141.064651 127.032066,140.928741 
	C125.963654,140.292557 124.895241,139.656372 123.395004,138.742035 
	C122.646957,138.359650 122.330750,138.255417 122.014534,138.151184 
	C122.014534,138.151184 121.751724,137.891037 121.417908,137.618866 
	C120.727684,137.226151 120.371269,137.105591 120.014854,136.985016 
	C118.976021,136.320908 117.937187,135.656799 116.448822,134.712173 
	C115.670677,134.322571 115.342072,134.213501 115.013466,134.104416 
	C115.013466,134.104416 114.782806,133.857315 114.452042,133.595245 
	C113.759605,133.194153 113.397949,133.055130 113.036285,132.916092 
	C113.036285,132.916092 113.016457,132.990387 112.949402,132.735840 
	C112.574959,132.363235 112.267578,132.245193 111.960197,132.127151 
	C111.960197,132.127151 111.946648,132.038666 111.733147,131.766953 
	C109.669136,131.303162 107.818619,131.111084 105.968109,130.918991 
	C105.671539,131.060226 105.374962,131.201477 104.633690,131.631699 
	C102.671013,132.847748 101.158951,133.784683 99.633514,134.699280 
	C97.843941,135.772263 96.148056,137.308167 94.212296,137.730865 
	C92.739677,138.052444 90.955894,136.949081 89.310547,136.479706 
	C90.031410,134.804657 90.334496,132.680618 91.556213,131.543854 
	C94.506004,128.799164 97.884911,126.515671 101.090805,124.046227 
	C105.137695,122.337227 108.542000,117.811859 114.301003,121.448853 
	C115.241287,121.822800 115.623199,121.907455 116.005119,121.992104 
	C116.005119,121.992104 116.250053,122.200874 116.583458,122.435150 
	C117.280861,122.757149 117.644852,122.844864 118.008850,122.932587 
	C118.008850,122.932587 118.272537,123.154419 118.605865,123.401215 
	C119.292885,123.734436 119.646576,123.820862 120.000267,123.907288 
	C120.000267,123.907288 120.313683,124.132568 120.767380,124.421654 
	C122.623711,124.548988 124.026337,124.387238 125.428970,124.225494 
z"/>
<path fill="#2CB3B3" opacity="1.000000" stroke="none" 
	d="
M100.881088,161.162918 
	C99.568024,163.237122 98.254967,165.311325 96.941910,167.385544 
	C95.506104,166.430771 94.143181,165.333633 92.618256,164.552933 
	C90.006805,163.216003 87.237587,162.184845 84.639465,160.824982 
	C81.996758,159.441772 79.369370,157.965927 76.988342,156.191132 
	C76.402161,155.754196 76.799309,153.998062 77.173965,152.420135 
	C77.764618,151.679016 77.925705,151.366165 78.086784,151.053314 
	C78.086784,151.053314 78.013573,151.010086 78.305176,150.988495 
	C78.870293,150.722977 79.143799,150.479050 79.417305,150.235123 
	C79.417305,150.235123 79.740471,150.248138 80.236465,150.234314 
	C87.448669,153.867966 94.164879,157.515442 100.881088,161.162918 
z"/>
<path fill="#E4FCFC" opacity="1.000000" stroke="none" 
	d="
M100.732529,124.002754 
	C97.884911,126.515671 94.506004,128.799164 91.556213,131.543854 
	C90.334496,132.680618 90.031410,134.804657 89.310547,136.479706 
	C90.955894,136.949081 92.739677,138.052444 94.212296,137.730865 
	C96.148056,137.308167 97.843941,135.772263 99.633514,134.699280 
	C101.158951,133.784683 102.671013,132.847748 104.547745,131.881104 
	C105.469734,132.678543 106.032967,133.515564 106.420448,134.664673 
	C103.087959,136.566132 99.850449,138.015244 96.792198,139.775726 
	C91.346527,142.910553 87.257111,141.200363 85.853195,134.664078 
	C86.107735,133.708511 86.286362,133.075653 86.632843,132.253616 
	C86.901398,131.742767 87.002113,131.421066 87.417603,131.049408 
	C88.495544,130.341049 89.258728,129.682678 90.337898,128.904953 
	C92.053818,127.223122 93.453766,125.660637 94.853706,124.098145 
	C96.693886,124.051857 98.534065,124.005569 100.732529,124.002754 
z"/>
<path fill="#2FB0AE" opacity="1.000000" stroke="none" 
	d="
M116.995773,153.840958 
	C116.734322,155.311874 116.472870,156.782791 115.637848,158.539734 
	C113.619354,158.950363 112.174438,159.074982 110.591789,159.211472 
	C110.237442,160.584335 109.903740,161.877197 109.365089,163.964066 
	C107.191437,162.404221 105.570732,161.241165 103.950027,160.078125 
	C103.950027,160.078125 104.001953,160.019684 103.917320,159.770462 
	C103.525467,159.097366 103.218246,158.673477 103.102676,157.935074 
	C105.147873,156.026245 107.603104,154.771805 108.734138,152.769409 
	C111.376762,148.090927 114.041733,149.802032 117.001404,152.342758 
	C116.999313,153.041931 116.997551,153.441452 116.995773,153.840958 
M113.535049,156.313553 
	C112.982338,155.972305 112.429626,155.631058 111.876915,155.289810 
	C111.740929,155.565125 111.604935,155.840454 111.468948,156.115768 
	C112.009583,156.322174 112.550224,156.528595 113.535049,156.313553 
z"/>
<path fill="#D1F6F6" opacity="1.000000" stroke="none" 
	d="
M102.911026,158.249603 
	C103.218246,158.673477 103.525467,159.097366 103.879929,159.781830 
	C102.953270,160.223114 101.979385,160.403824 100.943298,160.873718 
	C94.164879,157.515442 87.448669,153.867966 80.375572,150.151840 
	C80.700760,149.425049 81.382835,148.766907 82.599838,147.925980 
	C85.445137,148.776764 87.755508,149.810333 90.210968,150.949722 
	C90.356056,151.055557 90.711777,151.110916 90.891426,151.365387 
	C91.627426,151.856003 92.183784,152.092117 92.715668,152.334534 
	C92.691208,152.340836 92.691620,152.391373 92.772858,152.720459 
	C94.518440,153.760803 96.182785,154.472092 97.926193,155.161530 
	C98.005257,155.139679 97.843384,155.156952 97.964386,155.462769 
	C99.396011,156.469727 100.706627,157.170868 102.241470,157.964569 
	C102.465691,158.057129 102.911026,158.249603 102.911026,158.249603 
z"/>
<path fill="#34B0AE" opacity="1.000000" stroke="none" 
	d="
M85.777275,134.986771 
	C87.257111,141.200363 91.346527,142.910553 96.792198,139.775726 
	C99.850449,138.015244 103.087959,136.566132 106.632858,134.904755 
	C107.021019,134.832764 107.415245,134.996964 107.728210,135.271484 
	C108.356995,135.645477 108.672821,135.744980 108.988647,135.844467 
	C109.346870,135.941925 109.705093,136.039398 110.506027,136.374420 
	C111.299904,136.734787 111.651077,136.857605 112.002243,136.980423 
	C112.002243,136.980423 112.002823,137.004532 112.048828,137.199203 
	C112.094833,137.393875 112.199944,137.789505 112.104935,137.889923 
	C112.009926,137.990341 111.820473,138.191711 111.437233,138.121384 
	C107.114899,136.631302 103.574142,136.239014 100.280075,139.926376 
	C98.755112,141.633408 96.073380,143.102753 93.859512,143.186630 
	C91.385719,143.280380 88.455154,142.181885 86.480553,140.635437 
	C85.236732,139.661301 85.382248,136.913193 85.122665,134.968903 
	C85.340805,134.976929 85.777275,134.986771 85.777275,134.986771 
z"/>
<path fill="#2FB0AE" opacity="1.000000" stroke="none" 
	d="
M62.870384,136.884689 
	C64.197891,134.303223 65.525398,131.721756 66.270241,130.273315 
	C70.500656,130.970291 73.846191,131.521469 77.635666,132.075790 
	C78.079590,132.078934 78.238922,132.240387 78.103767,132.545456 
	C76.052742,133.616638 73.640450,135.516525 72.314247,134.935852 
	C68.365517,133.206955 65.681015,134.153015 63.138374,137.130539 
	C63.049290,137.048325 62.870388,136.884689 62.870384,136.884689 
z"/>
<path fill="#2FB0AE" opacity="1.000000" stroke="none" 
	d="
M73.736420,151.865799 
	C72.404221,151.929703 70.916603,152.400513 69.775314,151.964584 
	C67.946457,151.266037 66.295959,150.040573 64.659683,148.908325 
	C58.110733,144.376694 58.123508,144.358231 62.598740,137.088333 
	C62.870388,136.884689 63.049290,137.048325 63.062889,137.479416 
	C62.679699,140.053070 61.227863,143.378204 62.071270,144.130661 
	C65.473991,147.166443 68.643669,151.436615 74.230873,150.399628 
	C74.025337,151.091202 73.880882,151.478500 73.736420,151.865799 
z"/>
<path fill="#34B0AE" opacity="1.000000" stroke="none" 
	d="
M117.399635,153.892181 
	C116.997551,153.441452 116.999313,153.041931 117.349335,152.325775 
	C118.451454,151.366776 119.205338,150.724426 119.860680,149.843201 
	C119.471619,149.436951 119.181107,149.269592 118.597672,149.068268 
	C117.843483,148.703568 117.382233,148.372818 117.130226,147.866837 
	C117.227570,146.787888 117.115662,145.884171 117.375626,144.988922 
	C118.750732,145.407715 119.788307,145.750534 120.750946,146.240585 
	C124.035912,147.912842 123.924408,146.255127 123.430527,143.880341 
	C124.146202,143.959488 124.552071,144.031235 124.957932,144.102982 
	C124.957932,144.102982 124.979065,144.026062 125.035645,144.281616 
	C125.378197,144.721176 125.664162,144.905197 125.950127,145.089233 
	C125.950127,145.089233 125.978203,145.016006 125.948654,145.391556 
	C125.905167,146.496033 125.891220,147.224945 125.877274,147.953873 
	C124.565331,148.459076 123.253387,148.964294 121.587311,149.605865 
	C123.020973,153.049118 121.542953,154.489349 117.399635,153.892181 
z"/>
<path fill="#2BAFAC" opacity="1.000000" stroke="none" 
	d="
M94.424103,124.051834 
	C93.453766,125.660637 92.053818,127.223122 90.272827,128.839157 
	C89.891769,128.892700 89.761116,128.761612 89.830582,128.436295 
	C89.054703,127.683403 88.008415,126.703545 87.399269,126.925171 
	C84.942047,127.819191 82.619720,129.083954 80.165596,130.139313 
	C80.083618,130.066818 79.913643,129.928955 79.913643,129.928955 
	C82.963608,124.047279 88.393417,123.822845 94.424103,124.051834 
z"/>
<path fill="#D1F6F6" opacity="1.000000" stroke="none" 
	d="
M103.956253,160.452927 
	C105.570732,161.241165 107.191437,162.404221 109.365089,163.964066 
	C109.903740,161.877197 110.237442,160.584335 110.591789,159.211472 
	C112.174438,159.074982 113.619354,158.950363 115.485794,158.814148 
	C114.493721,160.322845 113.187660,161.967896 111.624863,163.315140 
	C110.733528,164.083527 109.024780,165.085190 108.379517,164.727463 
	C106.702080,163.797516 105.408958,162.174316 103.956253,160.452927 
z"/>
<path fill="#2FB0AE" opacity="1.000000" stroke="none" 
	d="
M90.065887,150.843887 
	C87.755508,149.810333 85.445137,148.776764 82.814262,147.636292 
	C82.493759,147.529373 82.364281,147.543701 82.156082,147.370529 
	C81.624550,147.164963 81.301201,147.132568 80.977859,147.100189 
	C80.539131,147.051163 80.100403,147.002121 79.012848,146.974701 
	C77.929070,147.025543 77.494125,147.054779 77.192200,146.749512 
	C81.294746,144.499146 86.236252,146.216904 90.065887,150.843887 
z"/>
<path fill="#34B0AE" opacity="1.000000" stroke="none" 
	d="
M116.986176,139.735321 
	C116.986176,139.735321 117.334114,139.998016 117.681870,140.268234 
	C118.352585,140.634735 118.675537,140.731018 118.998497,140.827301 
	C118.998497,140.827301 119.326683,141.048492 119.674576,141.302261 
	C120.359550,141.663254 120.696648,141.770477 121.033745,141.877701 
	C121.033745,141.877701 121.044868,141.981064 121.100983,142.174622 
	C121.157097,142.368179 121.151253,142.801819 120.768967,142.868195 
	C117.531273,141.353607 114.675873,139.772659 111.820473,138.191711 
	C111.820473,138.191711 112.009926,137.990341 112.404602,137.929764 
	C113.197250,137.918060 113.595238,137.966949 113.993217,138.015823 
	C113.993217,138.015823 113.999641,137.999359 114.087334,138.203720 
	C114.391777,138.654861 114.659973,138.740433 114.979599,138.664810 
	C115.115967,138.760849 115.252342,138.856888 115.750107,139.205841 
	C116.352692,139.710281 116.644249,139.802460 116.986176,139.735321 
z"/>
<path fill="#E4FCFC" opacity="1.000000" stroke="none" 
	d="
M106.214417,131.214264 
	C107.818619,131.111084 109.669136,131.303162 111.691223,131.782639 
	C110.062119,131.883209 108.261421,131.696381 106.214417,131.214264 
z"/>
<path fill="#D5F7F8" opacity="1.000000" stroke="none" 
	d="
M132.948486,127.755669 
	C131.927551,126.678131 130.939117,125.219971 129.896637,123.429855 
	C130.888718,124.523621 131.934845,125.949333 132.948486,127.755669 
z"/>
<path fill="#D1F6F6" opacity="1.000000" stroke="none" 
	d="
M74.063919,151.803802 
	C73.880882,151.478500 74.025337,151.091202 74.409225,150.282425 
	C74.849892,149.643005 74.971153,149.387146 75.255844,148.992188 
	C75.667946,148.593185 75.836632,148.295380 76.002350,147.998474 
	C75.999390,147.999390 75.997604,148.005142 76.231033,147.993988 
	C76.464462,147.982834 76.928307,147.925262 76.994904,147.996216 
	C77.061508,148.067154 77.192032,148.211533 77.192032,148.211533 
	C76.258492,149.388275 75.324959,150.565033 74.063919,151.803802 
z"/>
<path fill="#D5F7F8" opacity="1.000000" stroke="none" 
	d="
M137.889954,135.900040 
	C137.221527,135.413330 136.606766,134.549026 135.956116,133.362427 
	C136.594681,133.867554 137.269165,134.694992 137.889954,135.900040 
z"/>
<path fill="#D5F7F8" opacity="1.000000" stroke="none" 
	d="
M124.957550,124.156540 
	C124.026337,124.387238 122.623711,124.548988 120.959305,124.441833 
	C121.960403,124.144478 123.223274,124.116028 124.957550,124.156540 
z"/>
<path fill="#E4FCFC" opacity="1.000000" stroke="none" 
	d="
M126.156235,147.800385 
	C125.891220,147.224945 125.905167,146.496033 125.910889,145.402069 
	C126.080170,145.906998 126.257675,146.776962 126.156235,147.800385 
z"/>
<path fill="#2FB0AE" opacity="1.000000" stroke="none" 
	d="
M78.000526,131.997620 
	C78.406799,131.327011 78.892136,130.737717 79.645554,130.038696 
	C79.913643,129.928955 80.083618,130.066818 80.048073,130.414978 
	C79.421326,131.255569 78.830124,131.747986 78.238922,132.240387 
	C78.238922,132.240387 78.079590,132.078934 78.000526,131.997620 
z"/>
<path fill="#E4FCFC" opacity="1.000000" stroke="none" 
	d="
M121.151253,142.801819 
	C121.151253,142.801819 121.157097,142.368179 121.147545,142.151520 
	C121.676613,142.096466 122.215233,142.258087 122.910110,142.674103 
	C123.066383,142.928513 122.971031,143.031250 122.655670,142.999207 
	C121.922432,142.914795 121.504570,142.862442 121.105690,142.835358 
	C121.124680,142.860626 121.151253,142.801819 121.151253,142.801819 
z"/>
<path fill="#D5F7F8" opacity="1.000000" stroke="none" 
	d="
M127.214882,141.214111 
	C127.649582,141.064651 128.267105,141.200562 129.110138,141.565704 
	C128.689667,141.696472 128.043686,141.597977 127.214882,141.214111 
z"/>
<path fill="#D1F6F6" opacity="1.000000" stroke="none" 
	d="
M77.059174,147.084015 
	C77.494125,147.054779 77.929070,147.025543 78.687332,147.046844 
	C78.579483,147.413498 78.148331,147.729614 77.454605,148.128632 
	C77.192032,148.211533 77.061508,148.067154 77.049942,147.778595 
	C77.038383,147.490021 77.088295,147.043732 77.062698,147.039536 
	C77.037102,147.035339 77.059174,147.084015 77.059174,147.084015 
z"/>
<path fill="#E4FCFC" opacity="1.000000" stroke="none" 
	d="
M124.833282,143.838165 
	C124.552071,144.031235 124.146202,143.959488 123.420258,143.903305 
	C123.100166,143.918869 123.130142,143.896820 123.108749,143.677048 
	C123.087357,143.457275 122.971031,143.031250 122.971031,143.031250 
	C122.971031,143.031250 123.066383,142.928513 123.113892,142.875076 
	C123.677139,143.072220 124.192879,143.322800 124.833282,143.838165 
z"/>
<path fill="#E4FCFC" opacity="1.000000" stroke="none" 
	d="
M113.837799,137.761520 
	C113.595238,137.966949 113.197250,137.918060 112.499603,137.829346 
	C112.199944,137.789505 112.094833,137.393875 112.059067,137.192383 
	C112.576324,137.162994 113.129349,137.335098 113.837799,137.761520 
z"/>
<path fill="#D5F7F8" opacity="1.000000" stroke="none" 
	d="
M119.840622,123.675430 
	C119.646576,123.820862 119.292885,123.734436 118.777496,123.416229 
	C118.970863,123.270813 119.325928,123.357185 119.840622,123.675430 
z"/>
<path fill="#D1F6F6" opacity="1.000000" stroke="none" 
	d="
M81.130730,147.304871 
	C81.301201,147.132568 81.624550,147.164963 82.096046,147.395782 
	C81.924004,147.565994 81.603798,147.537781 81.130730,147.304871 
z"/>
<path fill="#D5F7F8" opacity="1.000000" stroke="none" 
	d="
M126.902115,123.153351 
	C126.943825,123.381088 126.730354,123.639786 126.256897,123.920120 
	C126.213585,123.689285 126.430260,123.436798 126.902115,123.153351 
z"/>
<path fill="#D5F7F8" opacity="1.000000" stroke="none" 
	d="
M132.107376,142.178619 
	C132.020676,142.010147 132.484421,141.843094 132.727112,141.884369 
	C132.711227,142.066132 132.452652,142.206619 132.107376,142.178619 
z"/>
<path fill="#D1F6F6" opacity="1.000000" stroke="none" 
	d="
M79.119995,150.239517 
	C79.143799,150.479050 78.870293,150.722977 78.323280,151.026962 
	C78.307411,150.805984 78.565056,150.524948 79.119995,150.239517 
z"/>
<path fill="#D5F7F8" opacity="1.000000" stroke="none" 
	d="
M127.864784,122.674347 
	C127.984421,122.820129 127.604858,123.127876 127.361862,123.150467 
	C127.327629,122.958229 127.536392,122.743393 127.864784,122.674347 
z"/>
<path fill="#D5F7F8" opacity="1.000000" stroke="none" 
	d="
M117.840591,122.696304 
	C117.644852,122.844864 117.280861,122.757149 116.744354,122.437698 
	C116.938683,122.290657 117.305511,122.375343 117.840591,122.696304 
z"/>
<path fill="#D1F6F6" opacity="1.000000" stroke="none" 
	d="
M77.825912,151.160217 
	C77.925705,151.366165 77.764618,151.679016 77.374832,152.131668 
	C77.285759,151.936691 77.425392,151.601913 77.825912,151.160217 
z"/>
<path fill="#D5F7F8" opacity="1.000000" stroke="none" 
	d="
M115.825890,121.743256 
	C115.623199,121.907455 115.241287,121.822800 114.667152,121.506332 
	C114.865509,121.347816 115.256088,121.421112 115.825890,121.743256 
z"/>
<path fill="#E4FCFC" opacity="1.000000" stroke="none" 
	d="
M114.857986,138.496796 
	C114.659973,138.740433 114.391777,138.654861 114.079468,138.209076 
	C114.273537,138.024765 114.524353,138.130997 114.857986,138.496796 
z"/>
<path fill="#D5F7F8" opacity="1.000000" stroke="none" 
	d="
M134.835571,131.020172 
	C134.597366,131.044434 134.339142,130.791519 134.064728,130.260468 
	C134.304214,130.235886 134.559875,130.489426 134.835571,131.020172 
z"/>
<path fill="#E4FCFC" opacity="1.000000" stroke="none" 
	d="
M112.089386,132.334351 
	C112.267578,132.245193 112.574959,132.363235 112.983009,132.717163 
	C112.740173,132.931747 112.451805,132.794586 112.089386,132.334351 
z"/>
<path fill="#E4FCFC" opacity="1.000000" stroke="none" 
	d="
M113.182617,133.181549 
	C113.397949,133.055130 113.759605,133.194153 114.283569,133.581833 
	C114.073555,133.702652 113.701256,133.574829 113.182617,133.181549 
z"/>
<path fill="#E4FCFC" opacity="1.000000" stroke="none" 
	d="
M115.157692,134.326660 
	C115.342072,134.213501 115.670677,134.322571 116.140228,134.659485 
	C115.954750,134.774490 115.628334,134.661697 115.157692,134.326660 
z"/>
<path fill="#E4FCFC" opacity="1.000000" stroke="none" 
	d="
M108.848740,135.646164 
	C108.672821,135.744980 108.356995,135.645477 107.939102,135.304901 
	C108.178238,135.076996 108.468834,135.205017 108.848740,135.646164 
z"/>
<path fill="#E4FCFC" opacity="1.000000" stroke="none" 
	d="
M111.846169,136.738617 
	C111.651077,136.857605 111.299904,136.734787 110.785149,136.375854 
	C110.977737,136.258743 111.333916,136.377777 111.846169,136.738617 
z"/>
<path fill="#E4FCFC" opacity="1.000000" stroke="none" 
	d="
M120.167076,137.230667 
	C120.371269,137.105591 120.727684,137.226151 121.234505,137.595398 
	C121.029709,137.721512 120.674500,137.598907 120.167076,137.230667 
z"/>
<path fill="#D5F7F8" opacity="1.000000" stroke="none" 
	d="
M138.304337,137.895706 
	C138.094666,137.827667 138.042664,137.668762 138.031921,137.262726 
	C138.202789,137.278687 138.332397,137.541763 138.304337,137.895706 
z"/>
<path fill="#E4FCFC" opacity="1.000000" stroke="none" 
	d="
M125.862778,144.840820 
	C125.664162,144.905197 125.378197,144.721176 124.997787,144.294159 
	C125.194038,144.231583 125.484734,144.411987 125.862778,144.840820 
z"/>
<path fill="#E4FCFC" opacity="1.000000" stroke="none" 
	d="
M122.149498,138.362946 
	C122.330750,138.255417 122.646957,138.359650 123.083450,138.693481 
	C122.897301,138.806946 122.590881,138.690826 122.149498,138.362946 
z"/>
<path fill="#E4FCFC" opacity="1.000000" stroke="none" 
	d="
M116.853302,139.549332 
	C116.644249,139.802460 116.352692,139.710281 115.996338,139.250244 
	C116.203392,139.038193 116.483139,139.145401 116.853302,139.549332 
z"/>
<path fill="#D5F7F8" opacity="1.000000" stroke="none" 
	d="
M137.198486,139.867188 
	C137.104630,139.656906 137.262222,139.348175 137.664185,138.934784 
	C137.755692,139.143005 137.602829,139.455872 137.198486,139.867188 
z"/>
<path fill="#E4FCFC" opacity="1.000000" stroke="none" 
	d="
M118.850388,140.620941 
	C118.675537,140.731018 118.352585,140.634735 117.894943,140.314240 
	C118.074265,140.198227 118.388275,140.306412 118.850388,140.620941 
z"/>
<path fill="#D5F7F8" opacity="1.000000" stroke="none" 
	d="
M136.106750,140.835480 
	C136.048782,140.613144 136.253326,140.344116 136.711578,140.011078 
	C136.766602,140.227661 136.567932,140.508224 136.106750,140.835480 
z"/>
<path fill="#E4FCFC" opacity="1.000000" stroke="none" 
	d="
M120.876602,141.659058 
	C120.696648,141.770477 120.359550,141.663254 119.870491,141.330093 
	C120.052162,141.216248 120.385803,141.328339 120.876602,141.659058 
z"/>
<path fill="#D5F7F8" opacity="1.000000" stroke="none" 
	d="
M134.718597,141.666412 
	C134.704865,141.391861 135.012695,141.153671 135.614380,140.875153 
	C135.618881,141.124146 135.329529,141.413437 134.718597,141.666412 
z"/>
<path fill="#2BAFAC" opacity="1.000000" stroke="none" 
	d="
M85.853195,134.664078 
	C85.777275,134.986771 85.340805,134.976929 85.033913,134.682068 
	C85.129227,133.564484 85.531433,132.741730 86.063484,132.052979 
	C86.193321,132.186966 86.464989,132.442780 86.464996,132.442780 
	C86.286362,133.075653 86.107735,133.708511 85.853195,134.664078 
z"/>
<path fill="#2BAFAC" opacity="1.000000" stroke="none" 
	d="
M89.956848,128.958496 
	C89.258728,129.682678 88.495544,130.341049 87.356445,130.995026 
	C86.980522,130.990631 86.856781,130.883530 86.957375,130.569580 
	C87.959015,129.757629 88.860069,129.259613 89.761116,128.761612 
	C89.761116,128.761612 89.891769,128.892700 89.956848,128.958496 
z"/>
<path fill="#2BAFAC" opacity="1.000000" stroke="none" 
	d="
M87.041679,131.045013 
	C87.002113,131.421066 86.901398,131.742767 86.632835,132.253616 
	C86.464989,132.442780 86.193321,132.186966 86.180740,131.850769 
	C86.362816,131.266159 86.592354,131.055817 86.856781,130.883530 
	C86.856781,130.883530 86.980522,130.990631 87.041679,131.045013 
z"/>
<path fill="#04B6B8" opacity="1.000000" stroke="none" 
	d="
M86.957375,130.569580 
	C86.592354,131.055817 86.362816,131.266159 86.050903,131.716766 
	C85.531433,132.741730 85.129227,133.564484 84.815773,134.674042 
	C85.382248,136.913193 85.236732,139.661301 86.480553,140.635437 
	C88.455154,142.181885 91.385719,143.280380 93.859512,143.186630 
	C96.073380,143.102753 98.755112,141.633408 100.280075,139.926376 
	C103.574142,136.239014 107.114899,136.631302 111.437233,138.121384 
	C114.675873,139.772659 117.531273,141.353607 120.768967,142.868195 
	C121.151253,142.801819 121.124680,142.860626 121.231979,143.135315 
	C121.936226,143.572281 122.533180,143.734558 123.130142,143.896820 
	C123.130142,143.896820 123.100166,143.918869 123.110443,143.895905 
	C123.924408,146.255127 124.035912,147.912842 120.750946,146.240585 
	C119.788307,145.750534 118.750732,145.407715 117.180649,144.769135 
	C113.281746,146.009277 115.818306,146.962769 116.920982,148.042068 
	C117.382233,148.372818 117.843483,148.703568 118.740280,149.267746 
	C119.392952,149.754135 119.654083,149.947769 119.959213,150.082077 
	C119.205338,150.724426 118.451454,151.366776 117.349655,152.026108 
	C114.041733,149.802032 111.376762,148.090927 108.734138,152.769409 
	C107.603104,154.771805 105.147873,156.026245 103.102676,157.935074 
	C102.911026,158.249603 102.465691,158.057129 102.173271,157.633987 
	C100.535027,156.526215 99.189201,155.841583 97.843384,155.156952 
	C97.843384,155.156952 98.005257,155.139679 97.938461,154.770721 
	C96.144989,153.731644 94.418304,153.061508 92.691620,152.391373 
	C92.691620,152.391373 92.691208,152.340836 92.642502,151.997253 
	C91.966461,151.472733 91.339119,151.291824 90.711777,151.110916 
	C90.711777,151.110916 90.356056,151.055557 90.210968,150.949722 
	C86.236252,146.216904 81.294746,144.499146 77.192200,146.749512 
	C77.059174,147.084015 77.037102,147.035339 76.811729,147.108490 
	C76.390099,147.456131 76.193848,147.730637 75.997604,148.005142 
	C75.997604,148.005142 75.999390,147.999390 75.759247,148.099106 
	C75.350212,148.497009 75.181320,148.795181 75.012421,149.093369 
	C74.971153,149.387146 74.849892,149.643005 74.470306,149.978149 
	C68.643669,151.436615 65.473991,147.166443 62.071270,144.130661 
	C61.227863,143.378204 62.679699,140.053070 63.151974,137.561630 
	C65.681015,134.153015 68.365517,133.206955 72.314247,134.935852 
	C73.640450,135.516525 76.052742,133.616638 78.103775,132.545456 
	C78.830124,131.747986 79.421326,131.255569 80.130051,130.487488 
	C82.619720,129.083954 84.942047,127.819191 87.399269,126.925171 
	C88.008415,126.703545 89.054703,127.683403 89.830582,128.436295 
	C88.860069,129.259613 87.959015,129.757629 86.957375,130.569580 
z"/>
<path fill="#04B6B8" opacity="1.000000" stroke="none" 
	d="
M113.312958,156.524277 
	C112.550224,156.528595 112.009583,156.322174 111.468948,156.115768 
	C111.604935,155.840454 111.740929,155.565125 111.876915,155.289810 
	C112.429626,155.631058 112.982338,155.972305 113.312958,156.524277 
z"/>
<path fill="#2FB0AE" opacity="1.000000" stroke="none" 
	d="
M92.772858,152.720459 
	C94.418304,153.061508 96.144989,153.731644 97.859406,154.792572 
	C96.182785,154.472092 94.518440,153.760803 92.772858,152.720459 
z"/>
<path fill="#2FB0AE" opacity="1.000000" stroke="none" 
	d="
M97.964386,155.462769 
	C99.189201,155.841583 100.535027,156.526215 101.949051,157.541428 
	C100.706627,157.170868 99.396011,156.469727 97.964386,155.462769 
z"/>
<path fill="#2FB0AE" opacity="1.000000" stroke="none" 
	d="
M90.891426,151.365387 
	C91.339119,151.291824 91.966461,151.472733 92.666969,151.990952 
	C92.183784,152.092117 91.627426,151.856003 90.891426,151.365387 
z"/>
<path fill="#2FB0AE" opacity="1.000000" stroke="none" 
	d="
M117.130226,147.866837 
	C115.818306,146.962769 113.281746,146.009277 116.808769,144.760651 
	C117.115662,145.884171 117.227570,146.787888 117.130226,147.866837 
z"/>
<path fill="#2FB0AE" opacity="1.000000" stroke="none" 
	d="
M119.860672,149.843201 
	C119.654083,149.947769 119.392952,149.754135 119.033203,149.301697 
	C119.181107,149.269592 119.471619,149.436951 119.860672,149.843201 
z"/>
<path fill="#2FB0AE" opacity="1.000000" stroke="none" 
	d="
M76.231033,147.993988 
	C76.193848,147.730637 76.390099,147.456131 76.837326,147.112686 
	C77.088295,147.043732 77.038383,147.490021 76.983345,147.707642 
	C76.928307,147.925262 76.464462,147.982834 76.231033,147.993988 
z"/>
<path fill="#2FB0AE" opacity="1.000000" stroke="none" 
	d="
M75.255836,148.992188 
	C75.181320,148.795181 75.350212,148.497009 75.762207,148.098206 
	C75.836632,148.295380 75.667946,148.593185 75.255836,148.992188 
z"/>
<path fill="#34B0AE" opacity="1.000000" stroke="none" 
	d="
M123.108749,143.677048 
	C122.533180,143.734558 121.936226,143.572281 121.212982,143.110046 
	C121.504570,142.862442 121.922432,142.914795 122.655670,142.999207 
	C122.971031,143.031250 123.087357,143.457275 123.108749,143.677048 
z"/>
</svg>